# File created by Blade
# Date/Time:  Wed Jan 21 17:57:11 2015
# Frame Rate: 120.000 fps
#------------------------------------------------------
:FULLY-SPECIFIED
:DEGREES
1362
root 19.015316 29.716410 -14.621094 -116.773412 41.967274 -185.173684
Spine 62.539480 -13.208743 20.593441
Head 97.325029 75.112549 150.390158
LeftShoulder 41.848809 -65.092309 19.423184
LeftArm 45.268177 -5.744087 -16.682617
LeftForeArm 19.793152 -0.000000 67.895232
LeftHand -12.825403 0.000000 -29.499757
LeftHandThumb1 -26.253704 0.000000 33.147579
RightShoulder 19.047006 12.296392 -17.993490
RightArm 38.550303 61.553534 25.672009
RightForeArm 34.828957 -0.000000 52.848734
RightHand 7.205609 -0.000000 18.390801
RightHandThumb1 -24.326973 -0.000000 -32.862282
LeftUpLeg -61.747412 40.888194 -23.641542
LeftLeg -0.398310 -0.000000 0.000000
LeftFoot -22.374932 7.816606 -22.518702
LeftToeBase 25.332645 -0.000000 -0.000000
RightUpLeg -94.797995 -18.946744 -33.307632
RightLeg 17.361807 -0.000000 -0.000000
RightFoot -14.598814 -5.650222 27.115734
RightToeBase 17.364900 -0.000000 -0.000000
1363
root 19.010621 29.715689 -14.621223 -116.878124 41.966782 -185.262747
Spine 62.495240 -13.291414 20.691273
Head 95.861884 75.420528 148.884793
LeftShoulder 41.761438 -65.000568 19.502402
LeftArm 45.261060 -5.870254 -16.660706
LeftForeArm 19.756819 -0.000000 67.893281
LeftHand -12.816206 -0.000000 -29.462342
LeftHandThumb1 -26.253704 0.000000 33.147579
RightShoulder 19.041607 12.361647 -17.987350
RightArm 38.758673 61.541793 25.848282
RightForeArm 34.746255 -0.000000 52.782597
RightHand 7.204117 -0.000000 18.424837
RightHandThumb1 -24.326973 -0.000000 -32.862282
LeftUpLeg -61.705706 40.859250 -23.658075
LeftLeg -0.371599 -0.000000 0.000000
LeftFoot -22.345643 7.844895 -22.481595
LeftToeBase 25.357263 -0.000000 -0.000000
RightUpLeg -94.754093 -18.995868 -33.289371
RightLeg 17.362154 -0.000000 -0.000000
RightFoot -14.481607 -5.568484 27.122056
RightToeBase 17.323735 -0.000000 -0.000000
1364
root 19.007310 29.714062 -14.620708 -116.960454 41.964196 -185.344226
Spine 62.436518 -13.362140 20.778885
Head 94.970814 75.603796 147.991219
LeftShoulder 41.640641 -64.947782 19.656103
LeftArm 45.206191 -5.974958 -16.707185
LeftForeArm 19.746808 -0.000000 67.924636
LeftHand -12.804227 -0.000000 -29.492829
LeftHandThumb1 -26.253704 0.000000 33.147579
RightShoulder 19.059948 12.426762 -17.971935
RightArm 38.853752 61.514926 25.923959
RightForeArm 34.679483 -0.000000 52.746786
RightHand 7.191696 -0.000000 18.401577
RightHandThumb1 -24.326973 -0.000000 -32.862282
LeftUpLeg -61.678702 40.824799 -23.676144
LeftLeg -0.360362 -0.000000 0.000000
LeftFoot -22.292476 7.884013 -22.496674
LeftToeBase 25.358250 -0.000000 -0.000000
RightUpLeg -94.728687 -19.044092 -33.268984
RightLeg 17.364162 -0.000000 -0.000000
RightFoot -14.394282 -5.558333 27.200567
RightToeBase 17.300185 -0.000000 -0.000000
1365
root 19.005464 29.711203 -14.620452 -117.036612 41.956783 -185.417433
Spine 62.396254 -13.433304 20.867680
Head 93.677292 75.853987 146.708353
LeftShoulder 41.493196 -64.832667 19.820995
LeftArm 45.190333 -6.138124 -16.644232
LeftForeArm 19.712014 0.000000 67.957284
LeftHand -12.838511 -0.000000 -29.515944
LeftHandThumb1 -26.253704 0.000000 33.147579
RightShoulder 19.078371 12.500554 -17.954222
RightArm 38.865301 61.471890 25.891888
RightForeArm 34.672696 -0.000000 52.718716
RightHand 7.200928 -0.000000 18.392214
RightHandThumb1 -24.326973 -0.000000 -32.862282
LeftUpLeg -61.619444 40.785679 -23.656085
LeftLeg -0.370993 -0.000000 0.000000
LeftFoot -22.226200 7.906940 -22.551385
LeftToeBase 25.387346 -0.000000 -0.000000
RightUpLeg -94.699223 -19.089489 -33.249098
RightLeg 17.356953 -0.000000 -0.000000
RightFoot -14.324695 -5.571445 27.171842
RightToeBase 17.325424 -0.000000 -0.000000
